<svg xmlns="http://www.w3.org/2000/svg" xmlns:xlink="http://www.w3.org/1999/xlink" width="336" height="32" viewBox="0 0 336 32">
  <defs>
    <polygon id="logo_wh_1-a" points="15.742 17.379 15.742 .64 .239 .64 .239 17.379 15.742 17.379"/>
  </defs>
  <g fill="none" fill-rule="evenodd" transform="translate(3)">
    <path fill="#FFF" d="M11.2955031 21.7627889C11.2955031 22.8223988 10.4367477 23.6811542 9.37713777 23.6811542 8.31855263 23.6811542 7.45979721 22.8223988 7.45979721 21.7627889 7.45979721 20.7042037 8.31855263 19.8444235 9.37713777 19.8444235 10.4367477 19.8444235 11.2955031 20.7042037 11.2955031 21.7627889M20.511035 9.37806006C20.511035 10.9664502 19.2229019 12.2545833 17.6345118 12.2545833 16.0450969 12.2545833 14.7569638 10.9664502 14.7569638 9.37806006 14.7569638 7.7886452 16.0450969 6.50153684 17.6345118 6.50153684 19.2229019 6.50153684 20.511035 7.7886452 20.511035 9.37806006M28.7675892 13.5063372C28.7675892 15.0947272 27.479456 16.3828604 25.8910659 16.3828604 24.3026759 16.3828604 23.013518 15.0947272 23.013518 13.5063372 23.013518 11.9169223 24.3026759 10.6298139 25.8910659 10.6298139 27.479456 10.6298139 28.7675892 11.9169223 28.7675892 13.5063372M37.0243483 17.6344093C37.0243483 19.2238241 35.7362152 20.5109325 34.1478251 20.5109325 32.559435 20.5109325 31.2713019 19.2238241 31.2713019 17.6344093 31.2713019 16.0460192 32.559435 14.7578861 34.1478251 14.7578861 35.7362152 14.7578861 37.0243483 16.0460192 37.0243483 17.6344093M28.7675892 21.7629938C28.7675892 23.3513839 27.479456 24.639517 25.8910659 24.639517 24.3026759 24.639517 23.013518 23.3513839 23.013518 21.7629938 23.013518 20.1735789 24.3026759 18.8864706 25.8910659 18.8864706 27.479456 18.8864706 28.7675892 20.1735789 28.7675892 21.7629938M45.280595 21.7629938C45.280595 23.3513839 43.9924619 24.639517 42.4030471 24.639517 40.814657 24.639517 39.5265238 23.3513839 39.5265238 21.7629938 39.5265238 20.1735789 40.814657 18.8864706 42.4030471 18.8864706 43.9924619 18.8864706 45.280595 20.1735789 45.280595 21.7629938M44.3217198 30.0194455C44.3217198 31.0790554 43.4629644 31.9378108 42.4033545 31.9378108 41.3447693 31.9378108 40.4849892 31.0790554 40.4849892 30.0194455 40.4849892 28.9598356 41.3447693 28.102105 42.4033545 28.102105 43.4629644 28.102105 44.3217198 28.9598356 44.3217198 30.0194455M52.5789913 25.8911684C52.5789913 26.9507783 51.7202359 27.8095337 50.660626 27.8095337 49.6020409 27.8095337 48.7432854 26.9507783 48.7432854 25.8911684 48.7432854 24.8325833 49.6020409 23.9738279 50.660626 23.9738279 51.7202359 23.9738279 52.5789913 24.8325833 52.5789913 25.8911684M53.5377641 17.6344093C53.5377641 19.2227994 52.249631 20.5109325 50.6612409 20.5109325 49.0728508 20.5109325 47.7836929 19.2227994 47.7836929 17.6344093 47.7836929 16.0460192 49.0728508 14.7578861 50.6612409 14.7578861 52.249631 14.7578861 53.5377641 16.0460192 53.5377641 17.6344093M45.280595 13.5061322C45.280595 15.0945223 43.9924619 16.3826554 42.4030471 16.3826554 40.814657 16.3826554 39.5265238 15.0945223 39.5265238 13.5061322 39.5265238 11.9177421 40.814657 10.629609 42.4030471 10.629609 43.9924619 10.629609 45.280595 11.9177421 45.280595 13.5061322M36.065678 25.8911684C36.065678 26.9507783 35.2069226 27.8095337 34.1473127 27.8095337 33.0887276 27.8095337 32.2289474 26.9507783 32.2289474 25.8911684 32.2289474 24.8315585 33.0887276 23.9738279 34.1473127 23.9738279 35.2069226 23.9738279 36.065678 24.8315585 36.065678 25.8911684M53.5377641 9.37775263C53.5377641 10.9661427 52.249631 12.2542759 50.6612409 12.2542759 49.0728508 12.2542759 47.7836929 10.9661427 47.7836929 9.37775263 47.7836929 7.78936254 49.0728508 6.50122941 50.6612409 6.50122941 52.249631 6.50122941 53.5377641 7.78936254 53.5377641 9.37775263M60.8355455 5.24937307C60.8355455 6.30898297 59.9767901 7.16773839 58.9171802 7.16773839 57.8575703 7.16773839 56.9998396 6.30898297 56.9998396 5.24937307 56.9998396 4.19078793 57.8575703 3.33203251 58.9171802 3.33203251 59.9767901 3.33203251 60.8355455 4.19078793 60.8355455 5.24937307M60.8355455 21.7627889C60.8355455 22.8223988 59.9767901 23.6811542 58.9171802 23.6811542 57.858595 23.6811542 56.9988149 22.8223988 56.9988149 21.7627889 56.9988149 20.7031789 57.858595 19.8444235 58.9171802 19.8444235 59.9767901 19.8444235 60.8355455 20.7031789 60.8355455 21.7627889M36.065678 9.37806006C36.065678 10.4366452 35.2069226 11.2954006 34.1473127 11.2954006 33.0887276 11.2954006 32.2289474 10.4366452 32.2289474 9.37806006 32.2289474 8.31845015 33.0887276 7.45969474 34.1473127 7.45969474 35.2069226 7.45969474 36.065678 8.31845015 36.065678 9.37806006M27.8088164 30.0194455C27.8088164 31.0790554 26.950061 31.9378108 25.8904511 31.9378108 24.8318659 31.9378108 23.9731105 31.0790554 23.9731105 30.0194455 23.9731105 28.9598356 24.8318659 28.102105 25.8904511 28.102105 26.950061 28.102105 27.8088164 28.9598356 27.8088164 30.0194455M20.511035 17.6344093C20.511035 19.2227994 19.2229019 20.5109325 17.6345118 20.5109325 16.0461217 20.5109325 14.7569638 19.2227994 14.7569638 17.6344093 14.7569638 16.0460192 16.0461217 14.7578861 17.6345118 14.7578861 19.2229019 14.7578861 20.511035 16.0460192 20.511035 17.6344093"/>
    <path fill="#EC1947" d="M12.2542759,13.5061322 C12.2542759,15.0945223 10.9661427,16.3826554 9.37775263,16.3826554 C7.78936254,16.3826554 6.50122941,15.0945223 6.50122941,13.5061322 C6.50122941,11.9177421 7.78936254,10.629609 9.37775263,10.629609 C10.9661427,10.629609 12.2542759,11.9177421 12.2542759,13.5061322"/>
    <path fill="#FFF" d="M2.24219195 25.8911684C2.24219195 26.5101282 1.74005573 27.0122644 1.12109598 27.0122644.501111455 27.0122644 0 26.5101282 0 25.8911684 0 25.2722087.501111455 24.7700724 1.12109598 24.7700724 1.74005573 24.7700724 2.24219195 25.2722087 2.24219195 25.8911684M2.24219195 17.6344093C2.24219195 18.253369 1.74005573 18.7555053 1.12109598 18.7555053.501111455 18.7555053 0 18.253369 0 17.6344093 0 17.0154495.501111455 16.5133133 1.12109598 16.5133133 1.74005573 16.5133133 2.24219195 17.0154495 2.24219195 17.6344093M18.7550954 25.8328591C18.7550954 26.4518189 18.2529591 26.9539551 17.6339994 26.9539551 17.0150396 26.9539551 16.5129034 26.4518189 16.5129034 25.8328591 16.5129034 25.2138994 17.0150396 24.7117632 17.6339994 24.7117632 18.2529591 24.7117632 18.7550954 25.2138994 18.7550954 25.8328591M18.7550954 1.12109598C18.7550954 1.74005573 18.2529591 2.24219195 17.6339994 2.24219195 17.0150396 2.24219195 16.5129034 1.74005573 16.5129034 1.12109598 16.5129034.502136223 17.0150396 0 17.6339994 0 18.2529591 0 18.7550954.502136223 18.7550954 1.12109598M35.2104068 34.14803C35.2104068 34.7669898 34.7082706 35.269126 34.0893108 35.269126 33.4693263 35.269126 32.9682149 34.7669898 32.9682149 34.14803 32.9682149 33.5290703 33.4693263 33.0269341 34.0893108 33.0269341 34.7082706 33.0269341 35.2104068 33.5290703 35.2104068 34.14803M10.4988486 5.24937307C10.4988486 5.86833282 9.99671238 6.37046904 9.37775263 6.37046904 8.75776811 6.37046904 8.25665666 5.86833282 8.25665666 5.24937307 8.25665666 4.63041331 8.75776811 4.12827709 9.37775263 4.12827709 9.99671238 4.12827709 10.4988486 4.63041331 10.4988486 5.24937307M27.011752 5.24937307C27.011752 5.86833282 26.5096158 6.37046904 25.890656 6.37046904 25.2706715 6.37046904 24.7695601 5.86833282 24.7695601 5.24937307 24.7695601 4.63041331 25.2706715 4.12827709 25.890656 4.12827709 26.5096158 4.12827709 27.011752 4.63041331 27.011752 5.24937307"/>
    <path fill="#FFF" d="M35.2104068 34.14803C35.2104068 34.7669898 34.7082706 35.269126 34.0893108 35.269126 33.4693263 35.269126 32.9682149 34.7669898 32.9682149 34.14803 32.9682149 33.5290703 33.4693263 33.0269341 34.0893108 33.0269341 34.7082706 33.0269341 35.2104068 33.5290703 35.2104068 34.14803M76.5525118 13.5061322C76.5525118 14.125092 76.0503755 14.6272282 75.4314158 14.6272282 74.812456 14.6272282 74.3103198 14.125092 74.3103198 13.5061322 74.3103198 12.8871724 74.812456 12.3850362 75.4314158 12.3850362 76.0503755 12.3850362 76.5525118 12.8871724 76.5525118 13.5061322M60.0385836 30.0194455C60.0385836 30.6384053 59.5374721 31.1405415 58.9174876 31.1405415 58.2995526 31.1405415 57.7963916 30.6384053 57.7963916 30.0194455 57.7963916 29.4004858 58.2995526 28.8983495 58.9174876 28.8983495 59.5374721 28.8983495 60.0385836 29.4004858 60.0385836 30.0194455M70.0510774 9.37806006C70.0510774 10.9664502 68.7629443 12.2545833 67.1735294 12.2545833 65.5851393 12.2545833 64.2970062 10.9664502 64.2970062 9.37806006 64.2970062 7.78966997 65.5851393 6.50153684 67.1735294 6.50153684 68.7629443 6.50153684 70.0510774 7.78966997 70.0510774 9.37806006M61.7943183 13.5063372C61.7943183 15.0947272 60.5061851 16.3828604 58.9167703 16.3828604 57.329405 16.3828604 56.0412718 15.0947272 56.0412718 13.5063372 56.0412718 11.9179471 57.329405 10.6298139 58.9167703 10.6298139 60.5061851 10.6298139 61.7943183 11.9179471 61.7943183 13.5063372M68.2951378 25.8911684C68.2951378 26.5101282 67.7930015 27.0122644 67.1740418 27.0122644 66.5540573 27.0122644 66.0529458 26.5101282 66.0529458 25.8911684 66.0529458 25.2722087 66.5540573 24.7700724 67.1740418 24.7700724 67.7930015 24.7700724 68.2951378 25.2722087 68.2951378 25.8911684M69.0917923 17.6347167C69.0917923 18.6933019 68.2340616 19.5520573 67.1744517 19.5520573 66.1148418 19.5520573 65.2560864 18.6933019 65.2560864 17.6347167 65.2560864 16.5751068 66.1148418 15.7163514 67.1744517 15.7163514 68.2340616 15.7163514 69.0917923 16.5751068 69.0917923 17.6347167M43.5246554 5.24937307C43.5246554 5.86833282 43.023544 6.37046904 42.4035594 6.37046904 41.7845997 6.37046904 41.2824635 5.86833282 41.2824635 5.24937307 41.2824635 4.63041331 41.7845997 4.12827709 42.4035594 4.12827709 43.023544 4.12827709 43.5246554 4.63041331 43.5246554 5.24937307M68.2951378 1.12130093C68.2951378 1.74026068 67.7930015 2.2423969 67.1740418 2.2423969 66.5540573 2.2423969 66.0529458 1.74026068 66.0529458 1.12130093 66.0529458.502341176 66.5540573.00020495356 67.1740418.00020495356 67.7930015.00020495356 68.2951378.502341176 68.2951378 1.12130093M76.5525118 5.24937307C76.5525118 5.86833282 76.0503755 6.37046904 75.4314158 6.37046904 74.812456 6.37046904 74.3103198 5.86833282 74.3103198 5.24937307 74.3103198 4.63041331 74.812456 4.12827709 75.4314158 4.12827709 76.0503755 4.12827709 76.5525118 4.63041331 76.5525118 5.24937307M99.6616406 11.704283C99.9116839 11.103769 99.9588232 10.61393 99.8020337 10.2470632 99.6821359 9.96730155 99.4443898 9.75619938 99.0939192 9.61990526 98.2392628 9.30837585 97.5618913 9.71520867 97.1079192 10.8158093L93.9188418 18.5507567 89.5205384 10.6518464C89.2602474 10.1620074 88.9476932 9.8320322 88.5900492 9.66806935 88.2262567 9.50205697 87.8245477 9.52665139 87.3972195 9.74902601 87.0006344 9.97140062 86.7833836 10.3136731 86.750591 10.7666204 86.719848 11.2062458 86.8366715 11.6458712 87.094913 12.0721746L92.4995384 21.4651963C92.2607675 22.0831313 92.0056003 22.5494006 91.7412102 22.8506824 91.4778449 23.1509393 91.1734889 23.2964563 90.8096963 23.2964563 90.6467582 23.2964563 90.4920183 23.2810848 90.3516251 23.2513666 90.2102071 23.2216483 90.04317 23.1683604 89.8546127 23.0935523 89.6537582 23.0136204 89.5154146 22.9654563 89.4416313 22.9511096 88.6279656 22.6856947 88.0735663 22.914218 87.8071266 23.6141344 87.509944 24.4083294 87.7989285 25.0518836 88.6669068 25.5253263 89.2377025 25.8430043 90.0062783 26.0038929 90.9500895 26.0038929 91.9994517 26.0038929 92.8746034 25.6042334 93.5509502 24.8172118 94.2149997 24.0435121 94.9220895 22.7840724 95.6517241 21.0747598L99.6616406 11.704283zM104.048979 25.7707582C104.5091 25.7707582 104.878016 25.6272907 105.143431 25.3444548 105.408846 25.0636684 105.54309 24.6968015 105.54309 24.2541019L105.54309 18.8013124 112.763604 18.8013124 112.763604 24.2541019C112.763604 24.6957768 112.89375 25.0626437 113.149942 25.34343 113.408183 25.6272907 113.781199 25.7707582 114.257716 25.7707582 114.718861 25.7707582 115.086753 25.6272907 115.352168 25.3444548 115.617583 25.0636684 115.750802 24.6968015 115.750802 24.2541019L115.750802 11.0386963C115.750802 10.5959966 115.617583 10.2260554 115.353193 9.9370709 115.086753 9.64501207 114.718861 9.49744551 114.257716 9.49744551 113.781199 9.49744551 113.407159 9.64603684 113.148917 9.93809567 112.89375 10.2260554 112.763604 10.5959966 112.763604 11.0386963L112.763604 16.1174455 105.54309 16.1174455 105.54309 11.0386963C105.54309 10.5959966 105.408846 10.2250307 105.144456 9.9370709 104.878016 9.64501207 104.5091 9.49744551 104.048979 9.49744551 103.572462 9.49744551 103.198422 9.64603684 102.94018 9.93809567 102.683988 10.2270802 102.554867 10.5970214 102.554867 11.0386963L102.554867 24.2541019C102.554867 24.6957768 102.685013 25.0626437 102.941205 25.34343 103.199446 25.6272907 103.572462 25.7707582 104.048979 25.7707582M121.412952 25.7707582C121.892543 25.7707582 122.356763 25.4838232 122.795364 24.9161019L130.198286 14.8026684 130.198286 24.2541019C130.198286 24.6804053 130.327407 25.0431731 130.583599 25.3311328 130.841841 25.6221669 131.222029 25.7707582 131.714943 25.7707582 132.192485 25.7707582 132.561401 25.6272907 132.812469 25.3424053 133.060463 25.0616189 133.185485 24.6957768 133.185485 24.2541019L133.185485 11.0386963C133.185485 10.015978 132.706918 9.49744551 131.762082 9.49744551 131.218955 9.49744551 130.739364 9.77720712 130.332531 10.329557L122.976748 20.5096003 122.976748 11.0386963C122.976748 10.5970214 122.846602 10.2270802 122.591435 9.93809567 122.332169 9.64603684 121.959153 9.49744551 121.482636 9.49744551 120.989723 9.49744551 120.612608 9.64603684 120.36154 9.93912043 120.114571 10.2270802 119.988525 10.5970214 119.988525 11.0386963L119.988525 24.2541019C119.988525 24.7275446 120.115596 25.1026096 120.364615 25.3669997 120.615683 25.6344641 120.968203 25.7707582 121.412952 25.7707582M145.448573 22.8228087C144.884951 23.1988985 144.028245 23.3895053 142.90305 23.3895053 141.893654 23.3895053 141.016453 23.3454402 140.293991 23.2603845L140.293991 18.5915424 142.87948 18.5915424C145.167787 18.5915424 146.280685 19.3693412 146.280685 20.9669542 146.280685 21.8308334 146.000923 22.454917 145.448573 22.8228087M142.576149 16.3042607L140.293991 16.3042607 140.293991 12.0094588C141.002106 11.9387498 141.69075 11.902883 142.343527 11.902883 144.475044 11.902883 145.511084 12.5802545 145.511084 13.9749635 145.511084 15.5418334 144.550877 16.3042607 142.576149 16.3042607M146.602462 17.0584898C147.172233 16.7551585 147.636453 16.3165579 147.983849 15.7498613 148.372236 15.11553 148.567967 14.4238118 148.567967 13.6952019 148.567967 10.8330254 146.560446 9.38092941 142.599719 9.38092941 141.20296 9.38092941 139.935323 9.47623282 138.830623 9.66274056 137.897059 9.82670341 137.422592 10.3831523 137.422592 11.3177406L137.422592 24.0443319C137.422592 24.9655981 137.889886 25.4984774 138.809103 25.6296477 139.910728 25.8007839 141.249075 25.8868644 142.786227 25.8868644 147.133292 25.8868644 149.337567 24.1929232 149.337567 20.8511554 149.337567 19.9165672 149.072152 19.100852 148.548496 18.4265548 148.068905 17.8086198 147.415103 17.3495238 146.602462 17.0584898M163.537057 25.4070681C163.796324 25.1641981 163.928519 24.8393467 163.928519 24.4407121 163.928519 24.0267059 163.796324 23.6936563 163.537057 23.4497616 163.278816 23.2089412 162.93142 23.0869938 162.505116 23.0869938L155.863596 23.0869938 155.863596 18.7553003 160.965915 18.7553003C161.409639 18.7553003 161.765234 18.6282291 162.02245 18.3792105 162.281717 18.1281424 162.412887 17.799192 162.412887 17.401582 162.412887 16.9865511 162.280692 16.6565759 162.021426 16.421904 161.763184 16.188257 161.40759 16.0704087 160.965915 16.0704087L155.863596 16.0704087 155.863596 12.1824396 162.271469 12.1824396C162.698797 12.1824396 163.046193 12.0594675 163.30341 11.8186471 163.563701 11.5757771 163.694872 11.2509257 163.694872 10.852291 163.694872 10.4372601 163.563701 10.1042105 163.30341 9.86134056 163.046193 9.62052012 162.698797 9.49754799 162.271469 9.49754799L154.393054 9.49754799C153.917562 9.49754799 153.540447 9.64511455 153.274008 9.93717337 153.010642 10.2251331 152.876398 10.5960991 152.876398 11.0387988L152.876398 24.2306347C152.876398 24.6733344 153.013717 25.0443003 153.28733 25.3322601 153.560943 25.6232941 153.941132 25.7708607 154.416624 25.7708607L162.505116 25.7708607C162.93142 25.7708607 163.278816 25.6489133 163.537057 25.4070681M169.87125 12.1470851C170.518903 12.0620294 171.16963 12.0189892 171.803962 12.0189892 173.95085 12.0189892 174.995089 12.8951656 174.995089 14.6977322 174.995089 16.6253204 173.897562 17.5619582 171.641024 17.5619582 170.902166 17.5619582 170.307801 17.5353142 169.87125 17.4810015L169.87125 12.1470851zM178.12268 14.628048C178.12268 12.8326548 177.557008 11.494308 176.442061 10.6478498 175.334287 9.80754025 173.797135 9.38123684 171.873646 9.38123684 170.505581 9.38123684 169.292256 9.48371362 168.266463 9.68559288 167.349296 9.86595201 166.884051 10.4469954 166.884051 11.4113019L166.884051 24.253692C166.884051 24.6953669 167.013172 25.0622337 167.269364 25.3440449 167.52863 25.6268808 167.901646 25.7703483 168.377138 25.7703483 168.838284 25.7703483 169.206175 25.6279056 169.47159 25.3450697 169.737005 25.0632585 169.87125 24.6974164 169.87125 24.253692L169.87125 20.0767384C170.336494 20.1433483 170.985172 20.1771656 171.803962 20.1771656 173.665965 20.1771656 175.200042 19.7067972 176.362129 18.7814319 177.530364 17.849918 178.12268 16.4521347 178.12268 14.628048L178.12268 14.628048zM191.264917 22.3302028C190.150994 22.9870789 189.053468 23.3191037 188.003081 23.3191037 186.687279 23.3191037 185.585654 22.8097941 184.732022 21.8034721 183.873267 20.7920263 183.436716 19.3819458 183.436716 17.6111471 183.436716 15.9008096 183.842524 14.5122492 184.640818 13.4854319 185.938174 11.8181347 188.07379 11.4912337 190.953388 12.5959334 191.922818 12.9566517 192.560224 12.8080604 192.845109 12.1737291 193.177134 11.4604907 192.977304 10.8476796 192.253818 10.3537415 191.216753 9.63128019 189.748261 9.26441331 187.887282 9.26441331 185.523143 9.26441331 183.647818 10.0329892 182.314595 11.5465712 180.984446 13.0570789 180.310149 15.104565 180.310149 17.6347167 180.310149 20.1945867 180.94448 22.2492461 182.196747 23.7433576 183.453112 25.2436176 185.336635 26.0039954 187.794028 26.0039954 189.731864 26.0039954 191.350998 25.5346517 192.606338 24.6092864 193.011121 24.301856 193.262189 23.9462616 193.352369 23.5527508 193.443573 23.1520666 193.379013 22.8036455 193.162787 22.5218344 192.748781 21.9243947 192.104202 21.852661 191.264917 22.3302028M208.374645 9.49785542C207.832543 9.49785542 207.351927 9.77761703 206.945094 10.3299669L199.589311 20.5100102 199.589311 11.0380814C199.589311 10.5974313 199.46019 10.2264653 199.205023 9.9374808 198.945757 9.64644675 198.572741 9.49785542 198.096224 9.49785542 197.603311 9.49785542 197.226196 9.64644675 196.974103 9.93850557 196.727134 10.2274901 196.602113 10.5974313 196.602113 11.0380814L196.602113 24.253487C196.602113 24.7279545 196.728159 25.1019947 196.977178 25.3674096 197.228246 25.634874 197.580766 25.7711681 198.025515 25.7711681 198.506131 25.7711681 198.970351 25.4842331 199.407927 24.915487L206.81085 14.8030783 206.81085 24.253487C206.81085 24.6808152 206.940995 25.0425582 207.196162 25.330518 207.454404 25.6225768 207.835617 25.7711681 208.328531 25.7711681 208.805048 25.7711681 209.173964 25.6266759 209.425032 25.3417904 209.673026 25.0620288 209.798048 24.6951619 209.798048 24.253487L209.798048 11.0380814C209.798048 10.0163879 209.319481 9.49785542 208.374645 9.49785542M226.323658 10.8283115C226.323658 10.4132805 226.191463 10.08433 225.931172 9.84863344 225.672931 9.61601115 225.318361 9.49816285 224.876686 9.49816285L213.828664 9.49816285C213.402361 9.49816285 213.055989 9.61601115 212.796723 9.84863344 212.536432 10.08433 212.404237 10.4132805 212.404237 10.8283115 212.404237 11.2259214 212.535407 11.5548718 212.794674 11.8059399 213.052915 12.0559833 213.401336 12.1820297 213.828664 12.1820297L217.859076 12.1820297 217.859076 24.2537944C217.859076 24.6954693 217.988197 25.0623362 218.245414 25.3431226 218.503655 25.6269833 218.875646 25.7704508 219.352163 25.7704508 219.82868 25.7704508 220.201695 25.6269833 220.459937 25.3441474 220.716129 25.0623362 220.846274 24.6964941 220.846274 24.2537944L220.846274 12.1820297 224.876686 12.1820297C225.319386 12.1820297 225.67498 12.0559833 225.933222 11.8059399 226.192488 11.5548718 226.323658 11.2259214 226.323658 10.8283115M238.558259 23.0865839L231.917763 23.0865839 231.917763 18.7548904 237.020082 18.7548904C237.462782 18.7548904 237.818376 18.628844 238.076618 18.3788006 238.334859 18.1277325 238.467054 17.7998068 238.467054 17.4011721 238.467054 16.9861412 238.334859 16.6561659 238.074568 16.4214941 237.816327 16.1888718 237.461757 16.0710235 237.020082 16.0710235L231.917763 16.0710235 231.917763 12.1820297 238.324611 12.1820297C238.75194 12.1820297 239.099336 12.0600824 239.357577 11.8182372 239.616844 11.576392 239.749039 11.2505158 239.749039 10.8518811 239.749039 10.4368502 239.616844 10.1048254 239.357577 9.86195542 239.099336 9.62011022 238.75194 9.49816285 238.324611 9.49816285L230.446197 9.49816285C229.970704 9.49816285 229.59359 9.64572941 229.328175 9.93676347 229.063785 10.225748 228.92954 10.5956892 228.92954 11.0383889L228.92954 24.2302248C228.92954 24.6739492 229.067884 25.0438904 229.340472 25.3328749 229.614085 25.623909 229.994274 25.7704508 230.469766 25.7704508L238.558259 25.7704508C238.984562 25.7704508 239.331958 25.6485034 239.5902 25.4066582 239.850491 25.1637882 239.981661 24.8389368 239.981661 24.4403022 239.981661 24.026296 239.850491 23.6932464 239.5902 23.4503765 239.331958 23.2085313 238.984562 23.0865839 238.558259 23.0865839M254.992152 10.8283115C254.992152 10.4132805 254.859957 10.08433 254.599666 9.84863344 254.341425 9.61601115 253.986855 9.49816285 253.54518 9.49816285L242.497159 9.49816285C242.07188 9.49816285 241.724484 9.61601115 241.466242 9.84863344 241.204926 10.08433 241.072731 10.4132805 241.072731 10.8283115 241.072731 11.2259214 241.204926 11.5548718 241.463168 11.8059399 241.721409 12.0559833 242.06983 12.1820297 242.497159 12.1820297L246.52757 12.1820297 246.52757 24.2537944C246.52757 24.6954693 246.657716 25.0623362 246.913908 25.3431226 247.172149 25.6269833 247.54414 25.7704508 248.020657 25.7704508 248.498199 25.7704508 248.870189 25.6269833 249.128431 25.3441474 249.384623 25.0623362 249.514768 24.6964941 249.514768 24.2537944L249.514768 12.1820297 253.54518 12.1820297C253.988905 12.1820297 254.344499 12.0559833 254.602741 11.8059399 254.860982 11.5548718 254.992152 11.2259214 254.992152 10.8283115M277.320818 24.2538969L277.320818 11.0384913C277.320818 10.0157731 276.841227 9.49826533 275.897415 9.49826533 275.355313 9.49826533 274.873672 9.77802693 274.467864 10.329352L267.112081 20.5104201 267.112081 11.0384913C267.112081 10.5968164 266.98296 10.2268752 266.726768 9.93789071 266.468527 9.64583189 266.094487 9.49826533 265.618994 9.49826533 265.126081 9.49826533 264.747942 9.64583189 264.496874 9.93891548 264.249905 10.2279 264.124883 10.5978412 264.124883 11.0384913L264.124883 24.2538969C264.124883 24.7273396 264.250929 25.1013799 264.499948 25.3678195 264.749991 25.6352839 265.103536 25.7705533 265.548285 25.7705533 266.027877 25.7705533 266.493121 25.4836183 266.930697 24.9158969L274.33362 14.8024635 274.33362 24.2538969C274.33362 24.6802003 274.462741 25.0429681 274.717908 25.3309279 274.976149 25.6229867 275.357363 25.7705533 275.850276 25.7705533 276.327818 25.7705533 276.696734 25.6270858 276.947802 25.3422003 277.194772 25.0614139 277.320818 24.6955718 277.320818 24.2538969M292.399149 9.49785542L281.351127 9.49785542C280.925849 9.49785542 280.578452 9.61570372 280.319186 9.84832601 280.058895 10.0840226 279.927725 10.4139978 279.927725 10.828004 279.927725 11.2266387 280.058895 11.5545644 280.317137 11.8056325 280.575378 12.0556759 280.923799 12.1817223 281.351127 12.1817223L285.381539 12.1817223 285.381539 24.253487C285.381539 24.6961867 285.511685 25.0620288 285.767876 25.3438399 286.026118 25.6277006 286.399133 25.7711681 286.874626 25.7711681 287.352167 25.7711681 287.724158 25.6277006 287.9824 25.3438399 288.238592 25.0620288 288.368737 24.6961867 288.368737 24.253487L288.368737 12.1817223 292.399149 12.1817223C292.842873 12.1817223 293.197443 12.0556759 293.455685 11.8056325 293.714951 11.5545644 293.846121 11.2266387 293.846121 10.828004 293.846121 10.4139978 293.713926 10.0840226 293.453635 9.84832601 293.195393 9.61570372 292.840824 9.49785542 292.399149 9.49785542M309.903208 9.49785542C309.327288 9.49785542 308.837449 9.8104096 308.447013 10.4283446L303.866301 17.8281929 299.193359 10.4519142C298.802923 9.81860774 298.289514 9.49785542 297.666455 9.49785542 297.254499 9.49785542 296.914276 9.6290257 296.65501 9.88726718 296.396768 10.1455087 296.265598 10.541069 296.265598 11.0616511L296.265598 24.253487C296.265598 25.2608337 296.736991 25.7711681 297.666455 25.7711681 298.59592 25.7711681 299.067313 25.2608337 299.067313 24.253487L299.067313 15.2099111 302.341446 20.3419483C302.700115 20.912744 303.166384 21.2027533 303.726932 21.2027533 304.272109 21.2027533 304.731205 20.9045458 305.089873 20.3183786L308.315842 15.1023105 308.315842 24.253487C308.315842 24.6961867 308.451112 25.0630536 308.715502 25.3448647 308.981941 25.6277006 309.349833 25.7711681 309.809954 25.7711681 310.286471 25.7711681 310.659486 25.6277006 310.917728 25.3438399 311.17392 25.0630536 311.304065 24.6961867 311.304065 24.253487L311.304065 11.0380814C311.304065 10.5820598 311.183143 10.2080195 310.943347 9.92723313 310.699452 9.64234768 310.350007 9.49785542 309.903208 9.49785542"/>
    <g transform="translate(314.604 8.625)">
      <mask id="logo_wh_1-b" fill="#fff">
        <use xlink:href="#logo_wh_1-a"/>
      </mask>
      <path fill="#FFF" d="M11.4110969,13.1126214 C10.6179266,14.1619836 9.46301331,14.6938381 7.97914954,14.6938381 C6.51065728,14.6938381 5.36394211,14.1619836 4.57077183,13.1126214 C3.77145294,12.0540362 3.36564489,10.673674 3.36564489,9.00945108 C3.36564489,7.34522817 3.77145294,5.96486594 4.57077183,4.90525604 C5.36394211,3.85691858 6.51065728,3.32403932 7.97914954,3.32403932 C9.46301331,3.32403932 10.6179266,3.85691858 11.4110969,4.90525604 C12.2104158,5.96384118 12.6151991,7.34522817 12.6151991,9.00945108 C12.6151991,10.673674 12.2104158,12.055061 11.4110969,13.1126214 M13.7147749,3.003287 C12.3661805,1.43539226 10.4365427,0.640172446 7.97914954,0.640172446 C5.52175635,0.640172446 3.59519288,1.43539226 2.25377183,3.003287 C0.917474613,4.56810743 0.239078328,6.58894954 0.239078328,9.00945108 C0.239078328,11.4453241 0.917474613,13.4702653 2.25479659,15.0268876 C3.59621765,16.587609 5.52175635,17.3787297 7.97914954,17.3787297 C10.435518,17.3787297 12.3661805,16.587609 13.7147749,15.0268876 C15.060295,13.4702653 15.7427904,11.4453241 15.7427904,9.00945108 C15.7427904,6.58894954 15.060295,4.56810743 13.7147749,3.003287" mask="url(#logo_wh_1-b)"/>
    </g>
  </g>
</svg>
